PathFileType  4	(X/Y/Z) C:\Users\antoi\Documents\MyRepositories\mobilecap\ResultsAnalysis
DataRate	CameraRate	NumFrames	NumMarkers	Units	OrigDataRate	OrigDataStartFrame	OrigNumFrames
100.0	100.0	4	51	mm	100.0	102	271
Frame#	Time	r_knee			r_shank_antsup			r_ankle			r_calc			r_5meta			r_toe			L_knee			L_shank_antsup			L_ankle			L_calc			L_5meta			L_toe			r_sh2			r_sh3			r_sh4			L_sh2			L_sh3			r_thigh1			r_thigh2			r_thigh3			r_thigh4			r_thigh5			L_thigh1			L_thigh2			L_thigh3			L_thigh4			r.ASIS			r.PSIS			L.ASIS			L.PSIS			C7			R_Shoulder			L_Shoulder			R_Sternum			L_Sternum			R_humerus			R_elbow_med			R_elbow_lat			R_forearm			R_wrist_radius			R_wrist_ulna			L_humerus			L_elbow_med			L_elbow_lat			L_forearm			L_wrist_radius			L_wrist_ulna			R_HJC			L_HJC			R_HJC_reg			L_HJC_reg			
		X1	Y1	Z1	X2	Y2	Z2	X3	Y3	Z3	X4	Y4	Z4	X5	Y5	Z5	X6	Y6	Z6	X7	Y7	Z7	X8	Y8	Z8	X9	Y9	Z9	X10	Y10	Z10	X11	Y11	Z11	X12	Y12	Z12	X13	Y13	Z13	X14	Y14	Z14	X15	Y15	Z15	X16	Y16	Z16	X17	Y17	Z17	X18	Y18	Z18	X19	Y19	Z19	X20	Y20	Z20	X21	Y21	Z21	X22	Y22	Z22	X23	Y23	Z23	X24	Y24	Z24	X25	Y25	Z25	X26	Y26	Z26	X27	Y27	Z27	X28	Y28	Z28	X29	Y29	Z29	X30	Y30	Z30	X31	Y31	Z31	X32	Y32	Z32	X33	Y33	Z33	X34	Y34	Z34	X35	Y35	Z35	X36	Y36	Z36	X37	Y37	Z37	X38	Y38	Z38	X39	Y39	Z39	X40	Y40	Z40	X41	Y41	Z41	X42	Y42	Z42	X43	Y43	Z43	X44	Y44	Z44	X45	Y45	Z45	X46	Y46	Z46	X47	Y47	Z47	X48	Y48	Z48	X49	Y49	Z49	X50	Y50	Z50	X51	Y51	Z51	

102	1.01000000	-851.57034	737.38494	-425.08351	-847.74625	662.05422	-426.18967	-1115.44890	464.40547	-435.28893	-1179.46565	475.19415	-479.59807	-1066.57173	361.67242	-408.67076	-1023.09373	352.73026	-462.56357	-874.40948	718.24198	-724.83208	-888.99788	624.51142	-709.61211	-1145.62372	453.80078	-708.90569	-1215.42969	452.97904	-664.54632	-1090.86091	355.20800	-733.68508	-1036.71890	350.37754	-683.59695	-934.00013	588.26692	-417.24746	-889.82656	719.17519	-395.86279	-986.85422	649.60637	-393.58863	-932.54191	687.51948	-755.36253	-1021.89103	602.95637	-761.13251	-844.79907	990.41528	-390.46040	-822.35860	878.89592	-399.15432	-927.89597	855.07556	-423.36637	-954.41586	967.66694	-406.42781	-879.69206	844.88410	-400.09517	-855.24617	996.78166	-770.32040	-836.48509	860.57654	-752.49467	-966.53164	984.70647	-765.95357	-949.02933	850.05298	-726.64129	-808.53733	1166.30607	-473.38013	-1000.44328	1254.12362	-549.73578	-811.80077	1162.30254	-694.76342	-999.01304	1250.49006	-631.63599	-807.23678	1650.44407	-586.90248	-758.57735	1626.37421	-461.04440	-759.20048	1627.99123	-703.81997	-694.09915	1574.69335	-562.34946	-693.15455	1569.14341	-598.55372	-700.55096	1581.25749	-375.70285	-640.36823	1399.56558	-261.02829	-628.71524	1461.60618	-225.22467	-549.78036	1504.12590	-259.98133	-423.09235	1526.64728	-313.32978	-409.58614	1509.46862	-281.31240	-710.96104	1599.81734	-793.54188	-595.17308	1436.97083	-903.81545	-599.82299	1503.83430	-932.08064	-504.78503	1543.72662	-898.26314	-392.65496	1566.18221	-845.54396	-378.06209	1548.25171	-878.34726	-913.23615	1107.05952	-478.65125	-912.79805	1103.95282	-686.13393	-898.89172	1123.53810	-503.34368	-896.34372	1117.06011	-649.33022	
103	1.02000000	-843.91838	748.53955	-422.17402	-840.73035	673.64014	-423.47398	-1103.56582	471.06709	-435.21545	-1165.35438	486.61424	-479.75525	-1062.25675	364.05606	-408.55146	-1019.36417	351.78627	-462.00067	-866.68973	729.65973	-727.92452	-881.02158	636.24935	-713.48577	-1135.42356	461.37182	-711.52769	-1203.98759	465.40425	-667.28510	-1087.33915	357.18056	-734.67326	-1033.37559	349.45079	-684.53438	-926.08733	599.24940	-414.39837	-884.08254	730.82242	-393.51304	-980.24869	660.38270	-392.69762	-925.47595	699.34723	-757.93972	-1014.41315	614.37492	-763.36982	-831.69247	1001.55919	-389.47600	-811.54911	889.59424	-396.76501	-917.24551	867.40720	-420.78197	-941.77252	980.65534	-404.44488	-869.17382	856.69378	-397.57241	-840.87517	1008.16007	-771.20063	-824.99011	871.24056	-754.43164	-952.38834	997.67675	-768.22468	-937.70365	862.46446	-729.17893	-794.01337	1180.59948	-472.82917	-986.33249	1264.48079	-550.74049	-796.59210	1175.85376	-693.53327	-984.27975	1260.95707	-632.80788	-801.04350	1663.82913	-586.70394	-753.92894	1640.94193	-462.64416	-753.85077	1642.89549	-702.81251	-687.55545	1590.07047	-561.26278	-686.23575	1583.87350	-598.79119	-696.13017	1598.71362	-375.48709	-634.61971	1419.24888	-258.36461	-623.62120	1482.25693	-222.64964	-545.71461	1525.67693	-258.38154	-419.82249	1550.27919	-313.24713	-405.73331	1533.75909	-281.08500	-707.05167	1617.45522	-793.15237	-590.17671	1457.04285	-907.26027	-595.62379	1524.50219	-934.65596	-501.01287	1565.19598	-901.05326	-389.09623	1588.89786	-847.91150	-374.25532	1571.60095	-880.90245	-897.64972	1119.55081	-478.38118	-895.84497	1115.60302	-685.84319	-883.46752	1135.76105	-503.30933	-879.82901	1129.51164	-648.83835	
104	1.03000000	-835.28893	759.77308	-419.67415	-832.55134	685.54781	-420.81749	-1089.84304	477.56345	-434.51772	-1148.99637	498.11178	-479.52317	-1057.08057	366.49205	-408.29008	-1015.18816	350.63615	-461.30245	-857.41579	741.50814	-730.31481	-871.20689	648.62559	-717.29117	-1123.07096	469.36139	-714.07830	-1190.06060	478.76354	-670.06415	-1082.85650	359.91481	-735.97032	-1029.42362	348.75474	-685.55349	-916.80930	610.20775	-411.81487	-877.33053	742.50348	-391.39969	-972.20881	671.10001	-392.01854	-916.69561	711.84050	-760.38793	-1005.30301	626.25525	-765.14763	-818.80440	1012.77153	-388.27119	-800.09757	900.50987	-394.56365	-906.10830	879.63010	-418.36275	-929.18379	993.30938	-402.34657	-858.15519	868.52491	-395.11577	-826.54311	1019.98477	-772.28664	-812.72157	882.49905	-756.07625	-938.21541	1010.42431	-770.36493	-925.68321	874.98987	-731.77894	-779.92580	1194.67291	-472.62479	-972.43809	1274.84957	-551.63237	-781.75156	1189.55257	-692.49623	-969.86534	1271.44561	-633.72123	-794.37753	1676.59524	-586.68615	-748.92775	1654.73345	-464.07828	-748.17563	1656.90459	-701.78473	-680.32251	1604.56189	-560.06722	-678.79457	1598.12444	-599.01217	-691.52608	1615.51909	-375.44872	-629.14252	1438.11201	-255.68548	-618.75664	1502.22013	-219.87776	-541.72304	1546.10939	-256.54361	-416.53063	1572.34337	-313.17133	-402.11336	1556.87188	-280.35735	-702.58184	1634.30998	-793.15813	-585.61496	1476.16057	-911.09714	-591.57753	1544.23198	-937.51358	-497.12786	1585.45531	-904.04728	-385.44274	1609.98049	-850.47709	-370.40115	1593.38284	-883.65322	-882.34630	1131.85197	-478.32768	-879.32581	1127.46430	-685.76737	-868.34657	1148.12769	-503.49180	-863.80180	1142.11742	-648.45542	
105	1.04000000	-825.71014	770.86799	-417.66988	-822.99783	697.57869	-418.27446	-1074.07627	483.47242	-432.76901	-1130.06013	509.11270	-478.86301	-1051.12087	368.76873	-407.69856	-1010.41503	349.11951	-460.21874	-846.59343	753.49437	-732.46406	-859.79776	660.99593	-720.59320	-1108.64416	477.32149	-716.46455	-1173.65102	492.44593	-672.53106	-1077.47868	363.32294	-737.14788	-1024.99795	348.27486	-686.49589	-905.99592	620.89477	-409.63507	-869.27485	754.13306	-390.03315	-962.22306	680.81611	-391.67995	-906.33909	724.52296	-762.69577	-994.61540	638.02045	-766.51923	-806.16691	1023.94311	-387.00013	-788.34398	911.25883	-392.90115	-894.74001	891.48399	-416.56873	-916.75349	1005.48942	-400.48259	-846.95757	880.05743	-393.13656	-812.55688	1031.74340	-773.38311	-799.90365	893.98306	-757.69582	-924.27293	1022.70151	-772.54500	-913.17895	887.32725	-734.27302	-766.33318	1208.30481	-472.62413	-958.87233	1285.06901	-552.45703	-767.39802	1203.12758	-691.69424	-955.93324	1281.84976	-634.42508	-787.11242	1688.60322	-586.73805	-743.32046	1667.64323	-464.95704	-742.11486	1669.92284	-700.67600	-672.48669	1617.98425	-559.21764	-670.82259	1611.72768	-599.04460	-686.59026	1631.67572	-375.36778	-624.15771	1456.41560	-252.00304	-614.02555	1521.29555	-216.74426	-537.69592	1565.32922	-254.43370	-413.08135	1592.69148	-312.92766	-398.56727	1578.54866	-279.35197	-697.40853	1650.14980	-792.90600	-581.36718	1494.29702	-915.46012	-587.49427	1562.99990	-940.61094	-493.03225	1604.44486	-907.20971	-381.60278	1629.32754	-853.21412	-366.44018	1613.45684	-886.70972	-867.48429	1143.79826	-478.46613	-863.39225	1139.31855	-685.88467	-853.62346	1160.29985	-503.76049	-848.44398	1154.62748	-648.18440	
